<?xml version="1.0" encoding="utf-8"?>
<!-- Generator: Adobe Illustrator 16.0.0, SVG Export Plug-In . SVG Version: 6.00 Build 0)  -->
<!DOCTYPE svg PUBLIC "-//W3C//DTD SVG 1.1 Tiny//EN" "http://www.w3.org/Graphics/SVG/1.1/DTD/svg11-tiny.dtd">
<svg version="1.1" baseProfile="tiny" id="Layer_1" xmlns="http://www.w3.org/2000/svg" xmlns:xlink="http://www.w3.org/1999/xlink"
	 x="0px" y="0px" width="273.26px" height="200.977px" viewBox="0 0 273.26 200.977" xml:space="preserve">
<path fill="#FFFFFF" stroke="#000000" stroke-width="0.5" stroke-miterlimit="10" d="M117.235,190.771l-9.77,9.64H4.023L0,197.008
	V3.968l3.734-3.685h103.729l8.046,7.938h21.838l8.907-7.653H273.26v199.274H145.683l-9.196-9.07L117.235,190.771L117.235,190.771z
	 M10.767,185.976c-2.798,0-5.067,2.237-5.067,5c0,2.762,2.27,5,5.067,5s5.068-2.238,5.068-5S13.565,185.976,10.767,185.976z
	 M100.787,185.976c-2.8,0-5.068,2.237-5.068,5c0,2.762,2.269,5,5.068,5c2.799,0,5.067-2.238,5.067-5
	S103.587,185.976,100.787,185.976z M10.767,32.291c-2.799,0-5.067,2.236-5.067,5c0,2.763,2.269,5,5.067,5
	c2.798,0,5.068-2.237,5.068-5C15.835,34.528,13.566,32.291,10.767,32.291z M263.435,3.403c-2.8,0-5.065,2.238-5.065,5
	c0,2.764,2.269,5,5.065,5c2.801,0,5.068-2.236,5.068-5C268.503,5.641,266.235,3.403,263.435,3.403z"/>
<g id="oscillator">
	<polygon fill="#6D6B67" points="134.929,104.598 131.528,100.913 131.528,79.653 134.929,75.968 142.017,75.968 145.417,79.653 
		145.417,100.913 142.017,104.598 	"/>
	<polygon fill="#6D6B67" points="145.417,68.315 141.731,72 134.929,72 131.244,68.315 131.244,46.771 134.929,43.086 
		141.731,43.086 145.417,46.771 	"/>
</g>
<line fill="none" stroke="#444343" stroke-miterlimit="10" x1="117.638" y1="31.346" x2="117.638" y2="157.883"/>
<g id="display">
	<text transform="matrix(1 0 0 1 179.1006 20.4563)" font-family="'OCRA'" font-size="11">DISPLAY</text>
	<rect x="147.401" y="23.244" fill="#A3A19F" width="121.892" height="169.795"/>
	<rect x="151" y="25.736" fill="#4F4E4D" width="114" height="163.24"/>
	<line fill="none" stroke="#777572" stroke-width="2" stroke-miterlimit="10" x1="154" y1="17.948" x2="181.5" y2="17.948"/>
	<line fill="none" stroke="#777572" stroke-width="2" stroke-miterlimit="10" x1="232.5" y1="17.948" x2="260" y2="17.948"/>
</g>
<g id="USB">
	<text transform="matrix(1 0 0 1 116.0547 170.842)" font-family="'OCRA'" font-size="10">USB</text>
</g>
<g id="encoder">
	<rect x="41.064" y="163.504" fill="#23293D" width="27.658" height="13.244"/>
	<text transform="matrix(1 0 0 1 32.0381 161.1506)" font-family="'OCRA'" font-size="10">Encoder</text>
	<ellipse fill="#C68D0C" cx="59.98" cy="170.126" rx="5.14" ry="5.68"/>
	<rect x="59.295" y="166.525" fill="#563A03" width="1.584" height="6.854"/>
</g>
<g id="button">
	<text transform="matrix(1 0 0 1 2.5352 68.7161)" font-family="'OCRA'" font-size="11">Button</text>
	<rect x="10.336" y="72" fill="#666262" width="28.267" height="12.314"/>
	<rect x="14.452" y="76.812" fill="#FCFAFA" width="14.751" height="3.486"/>
	<rect x="14.44" y="76.82" fill="#727070" width="7.276" height="3.488"/>
	
		<text transform="matrix(-1.346898e-010 0.8547 -1 -1.151138e-010 32.3428 73.3264)" fill="#F9F9F9" font-family="'DroidSans'" font-size="7.0961">ON</text>
</g>
<g id="analog_in">
	<text transform="matrix(-6.123234e-017 -1 1 -6.123234e-017 78.6543 19.2317)" font-family="'OCRA'" font-size="6">A2</text>
	<text transform="matrix(-6.123234e-017 -1 1 -6.123234e-017 70.4316 19.2317)" font-family="'OCRA'" font-size="6">A1</text>
	<g>
		<g>
			<g id="breadboard_2_">
				<rect x="65.823" y="2.385" fill="#404040" width="14.4" height="7.201"/>
				<rect id="connector0pin_2_" x="68.032" y="4.595" fill="none" width="2.782" height="2.782"/>
				<g id="connector0terminal_2_">
				</g>
				<rect x="68.032" y="4.595" width="2.782" height="2.782"/>
				<polygon fill="#2A2A29" points="67.007,3.571 68.032,4.595 70.815,4.595 71.839,3.571 				"/>
				<polygon fill="#474747" points="71.839,3.571 70.815,4.595 70.815,7.378 71.839,8.403 				"/>
				<polygon fill="#595959" points="71.839,8.403 70.815,7.378 68.032,7.378 67.007,8.403 				"/>
				<polygon fill="#373737" points="67.007,8.403 68.032,7.378 68.032,4.595 67.007,3.571 				"/>
				<rect id="connector1pin_2_" x="75.231" y="4.595" fill="none" width="2.783" height="2.782"/>
				<g id="connector1terminal_2_">
				</g>
				<rect x="75.231" y="4.595" width="2.783" height="2.782"/>
				<polygon fill="#2A2A29" points="74.208,3.571 75.231,4.595 78.014,4.595 79.04,3.571 				"/>
				<polygon fill="#474747" points="79.04,3.571 78.014,4.595 78.014,7.378 79.04,8.403 				"/>
				<polygon fill="#595959" points="79.04,8.403 78.014,7.378 75.231,7.378 74.208,8.403 				"/>
				<polygon fill="#373737" points="74.208,8.403 75.231,7.378 75.231,4.595 74.208,3.571 				"/>
			</g>
		</g>
	</g>
</g>
<g id="power">
	<text transform="matrix(-6.123234e-017 -1 1 -6.123234e-017 96.9443 18.9485)" font-family="'OCRA'" font-size="6">5V</text>
	<text transform="matrix(-6.123234e-017 -1 1 -6.123234e-017 103.7471 22.4836)" font-family="'OCRA'" font-size="6">GND</text>
	<g>
		<g>
			<g id="breadboard_3_">
				<rect x="90.745" y="2.385" fill="#404040" width="14.399" height="7.201"/>
				<rect id="connector0pin_3_" x="92.954" y="4.595" fill="none" width="2.782" height="2.782"/>
				<g id="connector0terminal_3_">
				</g>
				<rect x="92.954" y="4.595" width="2.782" height="2.782"/>
				<polygon fill="#2A2A29" points="91.93,3.572 92.954,4.595 95.737,4.595 96.762,3.572 				"/>
				<polygon fill="#474747" points="96.762,3.572 95.737,4.595 95.737,7.378 96.762,8.404 				"/>
				<polygon fill="#595959" points="96.762,8.404 95.737,7.378 92.954,7.378 91.93,8.404 				"/>
				<polygon fill="#373737" points="91.93,8.404 92.954,7.378 92.954,4.595 91.93,3.572 				"/>
				<rect id="connector1pin_3_" x="100.153" y="4.595" fill="none" width="2.783" height="2.782"/>
				<g id="connector1terminal_3_">
				</g>
				<rect x="100.153" y="4.595" width="2.783" height="2.782"/>
				<polygon fill="#2A2A29" points="99.13,3.572 100.153,4.595 102.937,4.595 103.962,3.572 				"/>
				<polygon fill="#474747" points="103.962,3.572 102.937,4.595 102.937,7.378 103.962,8.404 				"/>
				<polygon fill="#595959" points="103.962,8.404 102.937,7.378 100.153,7.378 99.13,8.404 				"/>
				<polygon fill="#373737" points="99.13,8.404 100.153,7.378 100.153,4.595 99.13,3.572 				"/>
			</g>
		</g>
	</g>
</g>
<g id="spi">
	<text transform="matrix(1 0 0 1 119.0215 37.2903)" font-family="'OCRA'" font-size="10">SPI</text>
	<text transform="matrix(1 0 0 1 112.4023 26.7346)" font-family="'OCRA'" font-size="6">1</text>
	<text transform="matrix(1 0 0 1 141.4482 17.9485)" font-family="'OCRA'" font-size="6">6</text>
	<g>
		<g>
			<g id="breadboard_6_">
				<polygon fill="#404040" points="119.455,26.095 121.018,27.656 125.091,27.656 126.655,26.095 126.655,22.021 125.091,20.456 
					121.018,20.456 119.455,22.021 				"/>
				<rect id="connector0pin_6_" x="121.659" y="22.661" fill="none" width="2.792" height="2.791"/>
				<g id="connector0terminal_6_">
				</g>
				<rect x="121.906" y="22.906" fill="#8D8C8C" width="2.3" height="2.3"/>
				<rect x="122.465" y="23.466" fill="#8C8663" width="1.182" height="1.183"/>
				<polygon fill="#B8AF82" points="121.906,25.206 122.465,24.647 122.465,23.466 121.906,22.906 				"/>
				<polygon fill="#80795B" points="123.646,23.466 122.465,23.466 121.906,22.906 124.205,22.906 				"/>
				<polygon fill="#5E5B43" points="123.646,24.647 123.646,23.466 124.205,22.906 124.205,25.206 				"/>
				<polygon fill="#9A916C" points="121.906,25.206 122.465,24.647 123.646,24.647 124.205,25.206 				"/>
				<polygon fill="#404040" points="119.455,18.894 121.018,20.456 125.091,20.456 126.655,18.894 126.655,14.821 125.091,13.257 
					121.018,13.257 119.455,14.821 				"/>
				<rect id="connector1pin_6_" x="121.659" y="15.462" fill="none" width="2.792" height="2.791"/>
				<g id="connector1terminal_6_">
				</g>
				<rect x="121.906" y="15.708" fill="#8D8C8C" width="2.3" height="2.297"/>
				<rect x="122.465" y="16.265" fill="#8C8663" width="1.182" height="1.185"/>
				<polygon fill="#B8AF82" points="121.906,18.005 122.465,17.448 122.465,16.267 121.906,15.708 				"/>
				<polygon fill="#80795B" points="123.646,16.267 122.465,16.267 121.906,15.708 124.205,15.708 				"/>
				<polygon fill="#5E5B43" points="123.646,17.448 123.646,16.267 124.205,15.708 124.205,18.005 				"/>
				<polygon fill="#9A916C" points="121.906,18.005 122.465,17.448 123.646,17.448 124.205,18.005 				"/>
			</g>
		</g>
	</g>
	<g>
		<g>
			<g id="breadboard_4_">
				<polygon fill="#404040" points="126.644,26.094 128.207,27.656 132.28,27.656 133.844,26.094 133.844,22.02 132.28,20.456 
					128.207,20.456 126.644,22.02 				"/>
				<rect id="connector0pin_4_" x="128.848" y="22.661" fill="none" width="2.792" height="2.791"/>
				<g id="connector0terminal_4_">
				</g>
				<rect x="129.095" y="22.906" fill="#8D8C8C" width="2.3" height="2.3"/>
				<rect x="129.654" y="23.466" fill="#8C8663" width="1.182" height="1.183"/>
				<polygon fill="#B8AF82" points="129.095,25.206 129.654,24.646 129.654,23.466 129.095,22.906 				"/>
				<polygon fill="#80795B" points="130.835,23.466 129.654,23.466 129.095,22.906 131.394,22.906 				"/>
				<polygon fill="#5E5B43" points="130.835,24.646 130.835,23.466 131.394,22.906 131.394,25.206 				"/>
				<polygon fill="#9A916C" points="129.095,25.206 129.654,24.646 130.835,24.646 131.394,25.206 				"/>
				<polygon fill="#404040" points="126.644,18.893 128.207,20.456 132.28,20.456 133.844,18.893 133.844,14.82 132.28,13.257 
					128.207,13.257 126.644,14.82 				"/>
				<rect id="connector1pin_4_" x="128.848" y="15.462" fill="none" width="2.792" height="2.791"/>
				<g id="connector1terminal_4_">
				</g>
				<rect x="129.095" y="15.708" fill="#8D8C8C" width="2.3" height="2.297"/>
				<rect x="129.654" y="16.264" fill="#8C8663" width="1.182" height="1.185"/>
				<polygon fill="#B8AF82" points="129.095,18.005 129.654,17.448 129.654,16.266 129.095,15.708 				"/>
				<polygon fill="#80795B" points="130.835,16.266 129.654,16.266 129.095,15.708 131.394,15.708 				"/>
				<polygon fill="#5E5B43" points="130.835,17.448 130.835,16.266 131.394,15.708 131.394,18.005 				"/>
				<polygon fill="#9A916C" points="129.095,18.005 129.654,17.448 130.835,17.448 131.394,18.005 				"/>
			</g>
		</g>
	</g>
	<g>
		<g>
			<g id="breadboard_5_">
				<polygon fill="#404040" points="133.456,26.094 135.019,27.656 139.092,27.656 140.656,26.094 140.656,22.02 139.092,20.455 
					135.019,20.455 133.456,22.02 				"/>
				<rect id="connector0pin_5_" x="135.66" y="22.66" fill="none" width="2.792" height="2.791"/>
				<g id="connector0terminal_5_">
				</g>
				<rect x="135.907" y="22.906" fill="#8D8C8C" width="2.3" height="2.3"/>
				<rect x="136.466" y="23.465" fill="#8C8663" width="1.182" height="1.183"/>
				<polygon fill="#B8AF82" points="135.907,25.205 136.466,24.646 136.466,23.465 135.907,22.906 				"/>
				<polygon fill="#80795B" points="137.647,23.465 136.466,23.465 135.907,22.906 138.206,22.906 				"/>
				<polygon fill="#5E5B43" points="137.647,24.646 137.647,23.465 138.206,22.906 138.206,25.205 				"/>
				<polygon fill="#9A916C" points="135.907,25.205 136.466,24.646 137.647,24.646 138.206,25.205 				"/>
				<polygon fill="#404040" points="133.456,18.893 135.019,20.455 139.092,20.455 140.656,18.893 140.656,14.82 139.092,13.256 
					135.019,13.256 133.456,14.82 				"/>
				<rect id="connector1pin_5_" x="135.66" y="15.461" fill="none" width="2.792" height="2.791"/>
				<g id="connector1terminal_5_">
				</g>
				<rect x="135.907" y="15.707" fill="#8D8C8C" width="2.3" height="2.297"/>
				<rect x="136.466" y="16.264" fill="#8C8663" width="1.182" height="1.185"/>
				<polygon fill="#B8AF82" points="135.907,18.004 136.466,17.448 136.466,16.266 135.907,15.707 				"/>
				<polygon fill="#80795B" points="137.647,16.266 136.466,16.266 135.907,15.707 138.206,15.707 				"/>
				<polygon fill="#5E5B43" points="137.647,17.448 137.647,16.266 138.206,15.707 138.206,18.004 				"/>
				<polygon fill="#9A916C" points="135.907,18.004 136.466,17.448 137.647,17.448 138.206,18.004 				"/>
			</g>
		</g>
	</g>
</g>
<g id="leds_1_">
	<g id="leds">
		<text transform="matrix(1 0 0 1 28.2354 48.636)" font-family="'OCRA'" font-size="10">R</text>
		<rect x="30.118" y="29.346" fill="#FF061E" width="4.252" height="8.652"/>
		<rect x="45.449" y="29.346" fill="#15FF08" width="4.252" height="8.652"/>
		<rect x="60.771" y="29.346" fill="#1408FF" width="4.252" height="8.652"/>
		<text transform="matrix(1 0 0 1 43.9023 48.636)" font-family="'OCRA'" font-size="10">G</text>
		<text transform="matrix(1 0 0 1 59.5684 48.636)" font-family="'OCRA'" font-size="10">B</text>
		<text transform="matrix(1 0 0 1 83.7813 48.636)" font-family="'OCRA'" font-size="11">M</text>
	</g>
	<g>
		<g>
			<rect x="89.294" y="37.752" fill="#B3B3B3" width="2.122" height="1.116"/>
			<rect x="82.502" y="37.752" fill="#B3B3B3" width="2.122" height="1.116"/>
			<rect x="89.294" y="27.794" fill="#B3B3B3" width="2.122" height="1.118"/>
			<rect x="82.502" y="27.794" fill="#B3B3B3" width="2.122" height="1.118"/>
		</g>
		<rect x="81.654" y="28.198" fill="#E6E6E6" width="10.609" height="10.266"/>
		<ellipse fill="#CCCCCC" cx="86.96" cy="33.467" rx="4.202" ry="4.065"/>
		<ellipse fill="#E6E6E6" cx="86.96" cy="33.467" rx="3.59" ry="3.474"/>
		<g>
			<g>
				<g>
					<path fill="#999999" d="M85.542,35.615v1.041c0.435,0.182,0.915,0.285,1.419,0.285c0.51,0,0.995-0.104,1.435-0.292v-1.032
						h-2.854V35.615z"/>
					<path fill="#999999" d="M89.144,31.256c-0.109,0-0.481,0-0.749,0c-0.265,0-0.295,0.286-0.295,0.286v1.01l0.468,0.453h1.936
						c-0.117-0.842-0.54-1.581-1.163-2.12C89.326,31.068,89.243,31.256,89.144,31.256z"/>
					<path fill="#999999" d="M85.846,32.552v-1.01c0,0-0.031-0.286-0.296-0.286c-0.266,0-0.64,0-0.749,0
						c-0.104,0-0.19-0.202-0.201-0.392c-0.637,0.54-1.066,1.287-1.185,2.141h1.961L85.846,32.552z"/>
					<path fill="#999999" d="M88.765,34.167l0.004,0.785c0.006,0,0.045,0,0.25,0c0.313,0,0.329,0.332,0.329,0.332v0.76
						c0.661-0.575,1.092-1.376,1.172-2.284c-0.299,0-1.029,0-1.358,0C88.738,33.76,88.765,34.167,88.765,34.167z"/>
					<path fill="#999999" d="M84.573,36.044v-0.76c0,0,0.016-0.332,0.327-0.332c0.203,0,0.244,0,0.25,0l0.005-0.785
						c0,0,0.024-0.407-0.396-0.407c-0.33,0-1.059,0-1.357,0C83.479,34.667,83.91,35.469,84.573,36.044z"/>
					<path fill="#999999" d="M86.469,33.332c0,0-0.031,0.195-0.342,0.195c-0.313,0-0.313,0-0.313,0v1.222
						c0,0-0.063,0.285,0.234,0.285c0.136,0,0.394,0,0.639,0c0,0,0.271,0,0.563,0c0.246,0,0.503,0,0.64,0
						c0.296,0,0.235-0.285,0.235-0.285v-1.222c0,0,0,0-0.313,0c-0.312,0-0.342-0.195-0.342-0.195v-2.575l0.788-0.521
						c-0.402-0.15-0.836-0.24-1.295-0.24c-0.453,0-0.884,0.089-1.284,0.235l0.792,0.526v2.575H86.469z"/>
				</g>
				<rect x="86.208" y="33.624" fill="#4F423C" width="1.668" height="2.249"/>
			</g>
			<rect x="86.737" y="32.356" fill="#4D4D4D" width="0.521" height="0.469"/>
			<rect x="84.933" y="31.559" fill="#4D4D4D" width="0.719" height="0.715"/>
			<g>
				<g>
					<g>
						<path fill="#E6C47E" d="M84.699,34.397c0.056,0.024,1.425,0.596,1.938,0.954l-0.045,0.061c-0.506-0.355-1.91-0.94-1.922-0.948
							L84.699,34.397z"/>
					</g>
					<g>
						<g>
							<circle fill="#E6C47E" cx="84.683" cy="34.431" r="0.096"/>
						</g>
					</g>
					<g>
						<g>
							<circle fill="#E6C47E" cx="86.613" cy="35.382" r="0.095"/>
						</g>
					</g>
				</g>
				<g>
					<g>
						<path fill="#E6C47E" d="M84.068,32.792c0.086,0.042,2.101,1.043,2.321,1.19l-0.043,0.062
							c-0.218-0.146-2.292-1.175-2.312-1.188L84.068,32.792z"/>
					</g>
					<g>
						<g>
							<circle fill="#E6C47E" cx="84.052" cy="32.825" r="0.095"/>
						</g>
					</g>
					<g>
						<g>
							<circle fill="#E6C47E" cx="86.368" cy="34.012" r="0.095"/>
						</g>
					</g>
				</g>
				<g>
					<g>
						<path fill="#E6C47E" d="M85.184,32.156c0.06,0.07,1.486,1.763,1.559,1.979l-0.071,0.022c-0.056-0.173-1.136-1.473-1.545-1.958
							L85.184,32.156z"/>
					</g>
					<g>
						<g>
							<circle fill="#E6C47E" cx="85.155" cy="32.18" r="0.096"/>
						</g>
					</g>
					<g>
						<g>
							<circle fill="#E6C47E" cx="86.708" cy="34.148" r="0.095"/>
						</g>
					</g>
				</g>
				<g>
					<g>
						<path fill="#E6C47E" d="M86.8,30.676l0.073,0.015c-0.013,0.094-0.862,0.75-1.37,1.133l-0.047-0.058
							C85.955,31.389,86.762,30.758,86.8,30.676z"/>
					</g>
					<g>
						<g>
							<circle fill="#E6C47E" cx="85.479" cy="31.795" r="0.095"/>
						</g>
					</g>
					<g>
						<g>
							<circle fill="#E6C47E" cx="86.835" cy="30.686" r="0.095"/>
						</g>
					</g>
				</g>
				<g>
					<g>
						<path fill="#E6C47E" d="M87.152,30.906c0.497,0.407,1.459,1.188,1.542,1.242l-0.042,0.061
							c-0.106-0.068-1.491-1.199-1.549-1.248L87.152,30.906z"/>
					</g>
					<g>
						<g>
							<circle fill="#E6C47E" cx="87.127" cy="30.934" r="0.096"/>
						</g>
					</g>
					<g>
						<g>
							<circle fill="#E6C47E" cx="88.672" cy="32.18" r="0.096"/>
						</g>
					</g>
				</g>
				<g>
					<g>
						<path fill="#E6C47E" d="M88.913,32.427l0.055,0.046c-0.051,0.063-1.309,1.502-1.767,1.708l-0.031-0.066
							C87.614,33.918,88.899,32.442,88.913,32.427z"/>
					</g>
					<g>
						<g>
							<circle fill="#E6C47E" cx="88.942" cy="32.451" r="0.095"/>
						</g>
					</g>
					<g>
						<g>
							<circle fill="#E6C47E" cx="87.187" cy="34.148" r="0.095"/>
						</g>
					</g>
				</g>
				<g>
					<g>
						<path fill="#E6C47E" d="M87.039,32.593c0.047,0.284-0.063,1.506-0.069,1.559l-0.075-0.007
							c0.001-0.013,0.117-1.266,0.069-1.542L87.039,32.593z"/>
					</g>
					<g>
						<g>
							<circle fill="#E6C47E" cx="86.933" cy="34.148" r="0.095"/>
						</g>
					</g>
					<g>
						<g>
							<circle fill="#E6C47E" cx="87" cy="32.598" r="0.096"/>
						</g>
					</g>
				</g>
				<g>
					<g>
						<path fill="#E6C47E" d="M89.081,34.082l0.071,0.02c-0.004,0.02-0.13,0.396-0.75,0.513c-0.594,0.111-1.126,0.323-1.13,0.326
							l-0.028-0.067c0.006-0.001,0.545-0.217,1.146-0.328C88.96,34.435,89.076,34.096,89.081,34.082z"/>
					</g>
					<g>
						<g>
							<circle fill="#E6C47E" cx="87.257" cy="34.906" r="0.094"/>
						</g>
					</g>
					<g>
						<g>
							<circle fill="#E6C47E" cx="89.117" cy="34.093" r="0.096"/>
						</g>
					</g>
				</g>
				<g>
					<g>
						<path fill="#E6C47E" d="M89.591,34.995l0.013,0.07c-0.013,0.002-1.233,0.183-2.075,0l0.017-0.07
							C88.372,35.173,89.579,34.997,89.591,34.995z"/>
					</g>
					<g>
						<g>
							<circle fill="#E6C47E" cx="89.597" cy="35.031" r="0.094"/>
						</g>
					</g>
					<g>
						<g>
							<circle fill="#E6C47E" cx="87.538" cy="35.03" r="0.095"/>
						</g>
					</g>
				</g>
				<g>
					<g>
						<path fill="#E6C47E" d="M87.165,35.414c0.021,0.556,0.486,0.988,0.49,0.995l-0.05,0.052c-0.02-0.02-0.492-0.458-0.515-1.044
							L87.165,35.414z"/>
					</g>
					<g>
						<g>
							<circle fill="#E6C47E" cx="87.631" cy="36.435" r="0.095"/>
						</g>
					</g>
					<g>
						<g>
							<circle fill="#E6C47E" cx="87.127" cy="35.416" r="0.095"/>
						</g>
					</g>
				</g>
			</g>
		</g>
	</g>
</g>
<g id="tmp36">
	<g>
		<g>
			<g id="breadboard_7_">
				<rect id="connector0pin_7_" x="17.43" y="137.417" fill="none" width="1.808" height="0.839"/>
				<rect id="connector1pin_7_" x="23.438" y="137.417" fill="none" width="1.808" height="0.839"/>
				<rect id="connector2pin" x="29.451" y="137.417" fill="none" width="1.808" height="0.839"/>
				<g id="connector0leg">
				</g>
				<g id="connector1leg">
				</g>
				<g id="connector2leg">
				</g>
				<rect id="rect9506" x="23.436" y="131.249" fill="#8C8C8C" width="1.802" height="7.847"/>
				<path id="path9510" fill="#8C8C8C" d="M20.181,131.249v2.781c0,0.355-0.655,0.89-1.003,1.196
					c-0.857,0.747-1.747,1.525-1.747,2.51v1.358h1.802c0,0,0-0.839,0-1.016c0-0.436,0.758-1.165,1.13-1.484
					c0.834-0.729,1.628-1.418,1.628-2.306v-3.042L20.181,131.249L20.181,131.249z"/>
				<path id="path9514" fill="#8C8C8C" d="M28.492,131.249v2.781c0,0.355,0.652,0.89,1.003,1.196
					c0.858,0.747,1.748,1.525,1.748,2.51v1.358H29.44c0,0,0-0.839,0-1.016c0-0.436-0.756-1.165-1.129-1.484
					c-0.835-0.729-1.627-1.418-1.627-2.306v-3.042L28.492,131.249L28.492,131.249z"/>
				<rect id="rect9553" x="18.782" y="122.798" fill="#1A1A1A" width="11.108" height="8.449"/>
				<path id="path9555" fill="#141414" d="M29.051,122.798v2.058v6.905v1.545c0.529-0.598,0.84-1.303,0.84-2.059l0,0v-8.449H29.051z
					"/>
				<path id="path9557" fill="#242424" d="M19.623,122.798h-0.841v8.449l0,0c0,0.755,0.312,1.461,0.841,2.059v-1.545v-6.905V122.798
					z"/>
				<path id="path9559" fill="#1F1F1F" d="M18.782,122.798L18.782,122.798c0,0.755,0.312,1.46,0.841,2.058h9.435
					c0.529-0.598,0.841-1.303,0.841-2.058l0,0H18.782z"/>
				<path id="path9561" fill="#141414" d="M24.337,118.888c-3.069,0-5.555,1.75-5.555,3.911H29.89
					C29.891,120.638,27.406,118.888,24.337,118.888z"/>
				<rect id="rect9563" x="19.623" y="124.855" width="9.435" height="8.45"/>
				<text id="label0" transform="matrix(0.9971 0 0 1 21.6514 128.9573)" fill="#E6E6E6" font-family="'OCRA'" font-size="2.5173">TMP</text>
				
					<text id="label0_1_" transform="matrix(0.9971 0 0 1 22.5493 131.4739)" fill="#E6E6E6" font-family="'OCRA'" font-size="2.5173">36</text>
			</g>
		</g>
	</g>
	<g id="light_1_">
		<text transform="matrix(1 0 0 1 10.7402 116.0793)" font-family="'OCRA'" font-size="10">Temp</text>
	</g>
</g>
<g id="Di">
	<g id="digital_in">
		<text transform="matrix(-6.123234e-017 -1 1 -6.123234e-017 15.1104 23.9319)" font-family="'OCRA'" font-size="6">Di1</text>
		<text transform="matrix(-6.123234e-017 -1 1 -6.123234e-017 22.0479 24.217)" font-family="'OCRA'" font-size="6">Di2</text>
		<text transform="matrix(-6.123234e-017 -1 1 -6.123234e-017 29.0723 23.9319)" font-family="'OCRA'" font-size="6">Di3</text>
	</g>
	<g>
		<g>
			<g id="breadboard_8_">
				<rect x="9.168" y="2.388" fill="#404040" width="21.6" height="7.2"/>
				<rect id="connector0pin_8_" x="11.377" y="4.596" fill="none" width="2.783" height="2.783"/>
				<g id="connector0terminal_7_">
				</g>
				<rect x="11.377" y="4.596" width="2.783" height="2.783"/>
				<polygon fill="#2A2A29" points="10.353,3.573 11.377,4.596 14.16,4.596 15.185,3.573 				"/>
				<polygon fill="#474747" points="15.185,3.573 14.16,4.596 14.16,7.38 15.185,8.405 				"/>
				<polygon fill="#595959" points="15.185,8.405 14.16,7.38 11.377,7.38 10.353,8.405 				"/>
				<polygon fill="#373737" points="10.353,8.405 11.377,7.38 11.377,4.596 10.353,3.573 				"/>
				<rect id="connector1pin_8_" x="18.577" y="4.596" fill="none" width="2.782" height="2.783"/>
				<g id="connector1terminal_7_">
				</g>
				<rect x="18.577" y="4.596" width="2.782" height="2.783"/>
				<polygon fill="#2A2A29" points="17.553,3.573 18.577,4.596 21.36,4.596 22.385,3.573 				"/>
				<polygon fill="#474747" points="22.385,3.573 21.36,4.596 21.36,7.38 22.385,8.405 				"/>
				<polygon fill="#595959" points="22.385,8.405 21.36,7.38 18.577,7.38 17.553,8.405 				"/>
				<polygon fill="#373737" points="17.553,8.405 18.577,7.38 18.577,4.596 17.553,3.573 				"/>
				<rect id="connector2pin_1_" x="25.777" y="4.596" fill="none" width="2.783" height="2.783"/>
				<g id="connector2terminal">
				</g>
				<rect x="25.777" y="4.596" width="2.783" height="2.783"/>
				<polygon fill="#2A2A29" points="24.753,3.573 25.777,4.596 28.56,4.596 29.585,3.573 				"/>
				<polygon fill="#474747" points="29.585,3.573 28.56,4.596 28.56,7.38 29.585,8.405 				"/>
				<polygon fill="#595959" points="29.585,8.405 28.56,7.38 25.777,7.38 24.753,8.405 				"/>
				<polygon fill="#373737" points="24.753,8.405 25.777,7.38 25.777,4.596 24.753,3.573 				"/>
			</g>
		</g>
	</g>
</g>
<g id="Do">
	<g id="digital_out">
		<text transform="matrix(-6.123234e-017 -1 1 -6.123234e-017 50.8574 23.6331)" font-family="'OCRA'" font-size="6">Do2</text>
		<text transform="matrix(-6.123234e-017 -1 1 -6.123234e-017 43.2051 23.634)" font-family="'OCRA'" font-size="6">Do1</text>
		<text transform="matrix(-6.123234e-017 -1 1 -6.123234e-017 57.835 23.6331)" font-family="'OCRA'" font-size="6">Do3</text>
	</g>
	<g>
		<g>
			<g id="breadboard_1_">
				<rect x="37.418" y="2.386" fill="#404040" width="21.6" height="7.2"/>
				<rect id="connector0pin_1_" x="39.627" y="4.594" fill="none" width="2.783" height="2.783"/>
				<g id="connector0terminal_1_">
				</g>
				<rect x="39.627" y="4.594" width="2.783" height="2.783"/>
				<polygon fill="#2A2A29" points="38.603,3.571 39.627,4.594 42.41,4.594 43.435,3.571 				"/>
				<polygon fill="#474747" points="43.435,3.571 42.41,4.594 42.41,7.378 43.435,8.403 				"/>
				<polygon fill="#595959" points="43.435,8.403 42.41,7.378 39.627,7.378 38.603,8.403 				"/>
				<polygon fill="#373737" points="38.603,8.403 39.627,7.378 39.627,4.594 38.603,3.571 				"/>
				<rect id="connector1pin_1_" x="46.827" y="4.594" fill="none" width="2.782" height="2.783"/>
				<g id="connector1terminal_1_">
				</g>
				<rect x="46.827" y="4.594" width="2.782" height="2.783"/>
				<polygon fill="#2A2A29" points="45.803,3.571 46.827,4.594 49.61,4.594 50.635,3.571 				"/>
				<polygon fill="#474747" points="50.635,3.571 49.61,4.594 49.61,7.378 50.635,8.403 				"/>
				<polygon fill="#595959" points="50.635,8.403 49.61,7.378 46.827,7.378 45.803,8.403 				"/>
				<polygon fill="#373737" points="45.803,8.403 46.827,7.378 46.827,4.594 45.803,3.571 				"/>
				<rect id="connector2pin_2_" x="54.027" y="4.594" fill="none" width="2.783" height="2.783"/>
				<g id="connector2terminal_1_">
				</g>
				<rect x="54.027" y="4.594" width="2.783" height="2.783"/>
				<polygon fill="#2A2A29" points="53.003,3.571 54.027,4.594 56.81,4.594 57.835,3.571 				"/>
				<polygon fill="#474747" points="57.835,3.571 56.81,4.594 56.81,7.378 57.835,8.403 				"/>
				<polygon fill="#595959" points="57.835,8.403 56.81,7.378 54.027,7.378 53.003,8.403 				"/>
				<polygon fill="#373737" points="53.003,8.403 54.027,7.378 54.027,4.594 53.003,3.571 				"/>
			</g>
		</g>
	</g>
</g>
<image width="5" height="2" xlink:href="C3CF4ACC.png"  transform="matrix(2.3269 0 0 2.3269 218.8135 188.6624)">
</image>
<g id="light_sensor">
	<g id="light">
		<text transform="matrix(1 0 0 1 74.084 116.0793)" font-family="'OCRA'" font-size="10">Light</text>
	</g>
</g>
<g id="ir_sensor">
	<g id="remote">
		<text transform="matrix(-0.02 0.9998 -0.9998 -0.02 107.1348 72.0012)" font-family="'OCRA'" font-size="10">IR</text>
	</g>
</g>
<g>
	<g>
		<g id="breadboard">
			<g id="icon">
				<path fill="#1F7A34" d="M4032.5,4050.477v26.641c1.192,0,2.16,0.967,2.159,2.16c0,1.192-0.967,2.158-2.159,2.159v26.639h46.028
					v-57.599H4032.5z"/>
				<g transform="matrix(1, 0, 0, 1, 7.2, 13.3215)">
					<g>
						<g>
							<path fill="#4D4D4D" d="M4039.776,4081.075c0,0.197,0.162,0.358,0.358,0.358h16.354c0.196,0,0.357-0.161,0.357-0.358v-0.812
								c0-0.198,0.146-0.435,0.321-0.521l1.491-0.737c0.179-0.088,0.322-0.322,0.322-0.521v-2.488c0-0.196-0.162-0.357-0.359-0.357
								h-20.625c-0.197,0-0.359,0.161-0.359,0.357v2.488c0,0.198,0.146,0.435,0.323,0.521l1.491,0.737
								c0.179,0.086,0.324,0.318,0.324,0.521V4081.075L4039.776,4081.075z"/>
							<g>
								<rect x="4032.5" y="4051.424" fill="#666666" width="6.594" height="6.254"/>
								<rect x="4032.5" y="4063.53" fill="#666666" width="6.594" height="7.237"/>
							</g>
							<rect x="4041.531" y="4076.325" fill="#1A1A1A" width="13.563" height="1.55"/>
							<g>
								<rect x="4057.533" y="4051.424" fill="#666666" width="6.596" height="6.254"/>
								<rect x="4057.533" y="4063.53" fill="#666666" width="6.596" height="7.237"/>
							</g>
							<g>
								<polygon fill="#999999" points="4052.516,4054.03 4051.69,4052.934 4057.959,4052.934 4057.959,4051.971 4038.61,4051.971 
									4038.61,4052.934 4044.934,4052.934 4044.108,4054.03 4037.637,4054.03 4037.637,4076.872 4058.985,4076.872 
									4058.985,4054.03 								"/>
							</g>
							<path d="M4043.766,4062.959c0.156,0,0.271,0.127,0.258,0.28l-1.099,10.494c-0.017,0.153-0.151,0.28-0.312,0.28h-1.744
								c-0.153,0-0.297-0.127-0.313-0.28l-1.1-10.494c-0.018-0.153,0.102-0.28,0.254-0.28h0.256c0.152,0,0.297,0.127,0.313,0.28
								l0.83,9.541c0.01,0.153,0.148,0.28,0.308,0.28h0.649c0.151,0,0.295-0.127,0.31-0.28l0.829-9.541
								c0.013-0.153,0.15-0.28,0.31-0.28H4043.766z"/>
							<path d="M4056.908,4062.959c0.15,0,0.271,0.127,0.256,0.28l-1.102,10.498c-0.021,0.153-0.152,0.28-0.313,0.28h-1.742
								c-0.152,0-0.297-0.127-0.313-0.28l-1.102-10.496c-0.02-0.153,0.104-0.28,0.254-0.28h0.26c0.152,0,0.295,0.127,0.313,0.28
								l0.828,9.541c0.014,0.153,0.146,0.281,0.311,0.281h0.646c0.15,0,0.297-0.128,0.313-0.281l0.824-9.541
								c0.021-0.153,0.146-0.28,0.313-0.28L4056.908,4062.959L4056.908,4062.959z"/>
							<g>
								<polygon fill="none" points="4054.272,4073.057 4055.489,4073.057 4055.561,4072.229 4054.207,4072.229 								"/>
								<polygon fill="#939393" points="4055.561,4072.229 4055.489,4073.057 4054.272,4073.057 4054.207,4072.229 								"/>
								<polygon fill="#545454" points="4055.561,4072.229 4055.592,4071.881 4054.169,4071.881 4054.207,4072.229 								"/>
							</g>
							<g>
								<polygon fill="none" points="4041.128,4073.057 4042.352,4073.057 4042.419,4072.229 4041.065,4072.229 								"/>
								<polygon fill="#939393" points="4042.419,4072.229 4042.352,4073.057 4041.128,4073.057 4041.065,4072.229 								"/>
								<polygon fill="#545454" points="4042.419,4072.229 4042.453,4071.881 4041.028,4071.881 4041.065,4072.229 								"/>
							</g>
							<rect x="4045.405" y="4064.489" fill="#808080" width="5.555" height="2.016"/>
							<rect x="4045.405" y="4063.375" fill="#545454" width="5.555" height="1.114"/>
							<path d="M4045.069,4074.973c0.152,0,0.293-0.127,0.301-0.28l0.699-11.604c0.01-0.154,0.146-0.281,0.301-0.281h3.889
								c0.154,0,0.291,0.127,0.307,0.281l0.688,11.604c0.009,0.153,0.146,0.28,0.302,0.28h0.521c0.152,0,0.271-0.127,0.267-0.28
								l-0.959-13.19c-0.017-0.154-0.146-0.283-0.31-0.283h-5.521c-0.152,0-0.295,0.129-0.309,0.283l-0.957,13.19
								c-0.01,0.153,0.109,0.282,0.264,0.282L4045.069,4074.973L4045.069,4074.973z"/>
							<g>
								<path fill="#E6E6E6" d="M4058.624,4076.887c0.06,0,0.11,0.052,0.11,0.108v1.486c0,0.104-0.094,0.25-0.187,0.299
									l-1.491,0.734c-0.265,0.131-0.461,0.448-0.461,0.744v0.813c0,0.062-0.052,0.109-0.109,0.109h-16.353
									c-0.06,0-0.108-0.052-0.108-0.109v-0.813c0-0.296-0.199-0.615-0.463-0.742l-1.492-0.738
									c-0.092-0.047-0.185-0.188-0.185-0.297v-1.484c0-0.062,0.052-0.107,0.11-0.107L4058.624,4076.887 M4058.624,4076.637
									h-20.628c-0.197,0-0.359,0.162-0.359,0.358v1.486c0,0.199,0.146,0.437,0.323,0.521l1.491,0.736
									c0.179,0.086,0.324,0.32,0.324,0.521v0.813c0,0.195,0.162,0.357,0.358,0.357h16.354c0.196,0,0.357-0.162,0.357-0.357v-0.813
									c0-0.199,0.146-0.436,0.321-0.521l1.491-0.736c0.179-0.088,0.322-0.321,0.322-0.521v-1.484
									C4058.985,4076.799,4058.823,4076.637,4058.624,4076.637L4058.624,4076.637z"/>
							</g>
							<path fill="#333333" d="M4055.096,4078.981c0,0.196-0.162,0.358-0.357,0.358h-12.846c-0.197,0-0.359-0.162-0.359-0.358
								v-1.123h13.563L4055.096,4078.981L4055.096,4078.981z"/>
							<g>
								<g>
									<rect x="4052.783" y="4078.184" fill="#1A1A1A" width="1.141" height="0.688"/>
								</g>
								<g>
									<rect x="4050.264" y="4078.184" fill="#1A1A1A" width="1.145" height="0.688"/>
								</g>
								<g>
									<rect x="4047.742" y="4078.184" fill="#1A1A1A" width="1.143" height="0.688"/>
								</g>
								<g>
									<rect x="4045.223" y="4078.184" fill="#1A1A1A" width="1.143" height="0.688"/>
								</g>
								<g>
									<rect x="4042.703" y="4078.184" fill="#1A1A1A" width="1.141" height="0.688"/>
								</g>
							</g>
							<g>
								<g>
									<rect x="4053.096" y="4078.184" fill="#E6E6E6" width="0.52" height="0.234"/>
								</g>
								<g>
									<rect x="4050.576" y="4078.184" fill="#E6E6E6" width="0.516" height="0.234"/>
								</g>
								<g>
									<rect x="4048.056" y="4078.184" fill="#E6E6E6" width="0.517" height="0.234"/>
								</g>
								<g>
									<rect x="4045.535" y="4078.184" fill="#E6E6E6" width="0.517" height="0.234"/>
								</g>
								<g>
									<rect x="4043.016" y="4078.184" fill="#E6E6E6" width="0.518" height="0.234"/>
								</g>
							</g>
							<g>
								<g>
									<rect x="4051.268" y="4050.477" fill="#666666" width="0.863" height="1.494"/>
									<rect x="4051.268" y="4050.477" fill="#CCCCCC" width="0.141" height="1.494"/>
								</g>
								<g>
									<rect x="4049.574" y="4050.477" fill="#666666" width="0.863" height="1.494"/>
									<rect x="4049.574" y="4050.477" fill="#CCCCCC" width="0.141" height="1.494"/>
								</g>
								<g>
									<rect x="4047.883" y="4050.477" fill="#666666" width="0.863" height="1.494"/>
									<rect x="4047.883" y="4050.477" fill="#CCCCCC" width="0.141" height="1.494"/>
								</g>
								<g>
									<rect x="4046.192" y="4050.477" fill="#666666" width="0.862" height="1.494"/>
									<rect x="4046.192" y="4050.477" fill="#CCCCCC" width="0.139" height="1.494"/>
								</g>
								<g>
									<rect x="4044.499" y="4050.477" fill="#666666" width="0.864" height="1.494"/>
									<rect x="4044.499" y="4050.477" fill="#CCCCCC" width="0.141" height="1.494"/>
								</g>
							</g>
						</g>
					</g>
				</g>
			</g>
			<g transform="matrix(1, 0, 0, 1, 7.46503, 52.8516)">
				<g>
					<rect id="connector0pin" x="4032.5" y="4050.477" fill="#8D8C8C" width="2.3" height="2.297"/>
					<rect x="4033.061" y="4051.033" fill="#8C8663" width="1.184" height="1.183"/>
					<polygon fill="#B8AF82" points="4032.5,4052.774 4033.061,4052.215 4033.061,4050.979 4032.5,4050.477 					"/>
					<polygon fill="#80795B" points="4034.243,4051.035 4033.069,4051.035 4032.5,4050.477 4034.8,4050.477 					"/>
					<polygon fill="#5E5B43" points="4034.243,4052.215 4034.243,4051.035 4034.8,4050.477 4034.8,4052.774 					"/>
					<polygon fill="#9A916C" points="4032.5,4052.774 4033.067,4052.215 4034.243,4052.215 4034.8,4052.774 					"/>
				</g>
			</g>
			<g transform="matrix(1, 0, 0, 1, 14.665, 52.8516)">
				<g>
					<rect id="connector1pin" x="4032.5" y="4050.477" fill="#8D8C8C" width="2.299" height="2.297"/>
					<rect x="4033.061" y="4051.033" fill="#8C8663" width="1.185" height="1.183"/>
					<polygon fill="#B8AF82" points="4032.5,4052.774 4033.061,4052.215 4033.061,4050.979 4032.5,4050.477 					"/>
					<polygon fill="#80795B" points="4034.243,4051.035 4033.068,4051.035 4032.5,4050.477 4034.799,4050.477 					"/>
					<polygon fill="#5E5B43" points="4034.243,4052.215 4034.243,4051.035 4034.799,4050.477 4034.799,4052.774 					"/>
					<polygon fill="#9A916C" points="4032.5,4052.774 4033.066,4052.215 4034.243,4052.215 4034.799,4052.774 					"/>
				</g>
			</g>
			<g transform="matrix(1, 0, 0, 1, 14.665, 2.4516)">
				<g>
					<rect id="connector8pin" x="4032.5" y="4050.476" fill="#8D8C8C" width="2.299" height="2.297"/>
					<rect x="4033.061" y="4051.034" fill="#8C8663" width="1.185" height="1.182"/>
					<polygon fill="#B8AF82" points="4032.5,4052.773 4033.061,4052.215 4033.061,4050.978 4032.5,4050.476 					"/>
					<polygon fill="#80795B" points="4034.243,4051.036 4033.068,4051.036 4032.5,4050.476 4034.799,4050.476 					"/>
					<polygon fill="#5E5B43" points="4034.243,4052.215 4034.243,4051.036 4034.799,4050.476 4034.799,4052.773 					"/>
					<polygon fill="#9A916C" points="4032.5,4052.773 4033.066,4052.215 4034.243,4052.215 4034.799,4052.773 					"/>
				</g>
			</g>
			<g transform="matrix(1, 0, 0, 1, 21.865, 52.8516)">
				<g>
					<rect id="connector2pin_3_" x="4032.5" y="4050.477" fill="#8D8C8C" width="2.299" height="2.297"/>
					<rect x="4033.061" y="4051.033" fill="#8C8663" width="1.185" height="1.183"/>
					<polygon fill="#B8AF82" points="4032.5,4052.774 4033.061,4052.215 4033.061,4050.979 4032.5,4050.477 					"/>
					<polygon fill="#80795B" points="4034.243,4051.035 4033.07,4051.035 4032.5,4050.477 4034.799,4050.477 					"/>
					<polygon fill="#5E5B43" points="4034.243,4052.215 4034.243,4051.035 4034.799,4050.477 4034.799,4052.774 					"/>
					<polygon fill="#9A916C" points="4032.5,4052.774 4033.068,4052.215 4034.243,4052.215 4034.799,4052.774 					"/>
				</g>
			</g>
			<g transform="matrix(1, 0, 0, 1, 21.865, 2.4516)">
				<g>
					<rect id="connector7pin" x="4032.5" y="4050.476" fill="#8D8C8C" width="2.299" height="2.297"/>
					<rect x="4033.061" y="4051.034" fill="#8C8663" width="1.185" height="1.182"/>
					<polygon fill="#B8AF82" points="4032.5,4052.773 4033.061,4052.215 4033.061,4050.978 4032.5,4050.476 					"/>
					<polygon fill="#80795B" points="4034.243,4051.036 4033.07,4051.036 4032.5,4050.476 4034.799,4050.476 					"/>
					<polygon fill="#5E5B43" points="4034.243,4052.215 4034.243,4051.036 4034.799,4050.476 4034.799,4052.773 					"/>
					<polygon fill="#9A916C" points="4032.5,4052.773 4033.068,4052.215 4034.243,4052.215 4034.799,4052.773 					"/>
				</g>
			</g>
			<g transform="matrix(1, 0, 0, 1, 29.065, 52.8516)">
				<g>
					<rect id="connector3pin" x="4032.5" y="4050.477" fill="#8D8C8C" width="2.299" height="2.297"/>
					<rect x="4033.061" y="4051.033" fill="#8C8663" width="1.186" height="1.183"/>
					<polygon fill="#B8AF82" points="4032.5,4052.774 4033.061,4052.215 4033.061,4050.979 4032.5,4050.477 					"/>
					<polygon fill="#80795B" points="4034.243,4051.035 4033.069,4051.035 4032.5,4050.477 4034.799,4050.477 					"/>
					<polygon fill="#5E5B43" points="4034.243,4052.215 4034.243,4051.035 4034.799,4050.477 4034.799,4052.774 					"/>
					<polygon fill="#9A916C" points="4032.5,4052.774 4033.067,4052.215 4034.243,4052.215 4034.799,4052.774 					"/>
				</g>
			</g>
			<g transform="matrix(1, 0, 0, 1, 29.065, 2.4516)">
				<g>
					<rect id="connector6pin" x="4032.5" y="4050.476" fill="#8D8C8C" width="2.299" height="2.297"/>
					<rect x="4033.061" y="4051.034" fill="#8C8663" width="1.186" height="1.182"/>
					<polygon fill="#B8AF82" points="4032.5,4052.773 4033.061,4052.215 4033.061,4050.978 4032.5,4050.476 					"/>
					<polygon fill="#80795B" points="4034.243,4051.036 4033.069,4051.036 4032.5,4050.476 4034.799,4050.476 					"/>
					<polygon fill="#5E5B43" points="4034.243,4052.215 4034.243,4051.036 4034.799,4050.476 4034.799,4052.773 					"/>
					<polygon fill="#9A916C" points="4032.5,4052.773 4033.067,4052.215 4034.243,4052.215 4034.799,4052.773 					"/>
				</g>
			</g>
			<g transform="matrix(1, 0, 0, 1, 36.265, 52.8516)">
				<g>
					<rect id="connector4pin" x="4032.5" y="4050.477" fill="#8D8C8C" width="2.299" height="2.297"/>
					<rect x="4033.061" y="4051.033" fill="#8C8663" width="1.184" height="1.183"/>
					<polygon fill="#B8AF82" points="4032.5,4052.774 4033.061,4052.215 4033.061,4050.979 4032.5,4050.477 					"/>
					<polygon fill="#80795B" points="4034.243,4051.035 4033.069,4051.035 4032.5,4050.477 4034.799,4050.477 					"/>
					<polygon fill="#5E5B43" points="4034.243,4052.215 4034.243,4051.035 4034.799,4050.477 4034.799,4052.774 					"/>
					<polygon fill="#9A916C" points="4032.5,4052.774 4033.067,4052.215 4034.243,4052.215 4034.799,4052.774 					"/>
				</g>
			</g>
			<g transform="matrix(1, 0, 0, 1, 36.265, 2.4516)">
				<g>
					<rect id="connector5pin" x="4032.5" y="4050.476" fill="#8D8C8C" width="2.299" height="2.297"/>
					<rect x="4033.061" y="4051.034" fill="#8C8663" width="1.184" height="1.182"/>
					<polygon fill="#B8AF82" points="4032.5,4052.773 4033.061,4052.215 4033.061,4050.978 4032.5,4050.476 					"/>
					<polygon fill="#80795B" points="4034.243,4051.036 4033.069,4051.036 4032.5,4050.476 4034.799,4050.476 					"/>
					<polygon fill="#5E5B43" points="4034.243,4052.215 4034.243,4051.036 4034.799,4050.476 4034.799,4052.773 					"/>
					<polygon fill="#9A916C" points="4032.5,4052.773 4033.067,4052.215 4034.243,4052.215 4034.799,4052.773 					"/>
				</g>
			</g>
		</g>
	</g>
</g>
<g transform="matrix(1, 0, 0, 1, 7.2, 13.3215)">
	<g>
		<g>
			<path fill="#4D4D4D" d="M114.481,175.846c0,0.107,0.105,0.194,0.233,0.194h10.642c0.128,0,0.233-0.087,0.233-0.194v-0.438
				c0-0.108,0.095-0.235,0.209-0.282l0.971-0.399c0.116-0.047,0.209-0.174,0.209-0.282v-1.348c0-0.105-0.105-0.192-0.233-0.192
				h-13.421c-0.129,0-0.234,0.087-0.234,0.192v1.348c0,0.108,0.095,0.235,0.21,0.282l0.971,0.399
				c0.116,0.047,0.211,0.172,0.211,0.282V175.846L114.481,175.846z"/>
			<g>
				<rect x="109.746" y="159.793" fill="#666666" width="4.291" height="3.386"/>
				<rect x="109.746" y="166.347" fill="#666666" width="4.291" height="3.919"/>
			</g>
			<rect x="115.623" y="173.273" fill="#1A1A1A" width="8.826" height="0.84"/>
			<g>
				<rect x="126.036" y="159.793" fill="#666666" width="4.292" height="3.386"/>
				<rect x="126.036" y="166.347" fill="#666666" width="4.292" height="3.919"/>
			</g>
			<g>
				<polygon fill="#999999" points="122.771,161.204 122.233,160.61 126.312,160.61 126.312,160.089 113.722,160.089 
					113.722,160.61 117.837,160.61 117.3,161.204 113.089,161.204 113.089,173.571 126.98,173.571 126.98,161.204 				"/>
			</g>
			<path d="M117.077,166.038c0.102,0,0.177,0.069,0.167,0.152l-0.714,5.681c-0.011,0.083-0.1,0.152-0.203,0.152h-1.134
				c-0.101,0-0.193-0.069-0.204-0.152l-0.715-5.681c-0.011-0.083,0.066-0.152,0.166-0.152h0.167c0.1,0,0.193,0.069,0.203,0.152
				l0.54,5.165c0.007,0.083,0.097,0.152,0.201,0.152h0.422c0.099,0,0.192-0.069,0.202-0.152l0.539-5.165
				c0.008-0.083,0.099-0.152,0.201-0.152H117.077z"/>
			<path d="M125.629,166.038c0.099,0,0.176,0.069,0.167,0.152l-0.716,5.683c-0.014,0.083-0.099,0.151-0.204,0.151h-1.133
				c-0.1,0-0.193-0.068-0.204-0.151l-0.716-5.683c-0.012-0.083,0.067-0.152,0.166-0.152h0.168c0.1,0,0.192,0.069,0.204,0.152
				l0.539,5.165c0.008,0.085,0.095,0.152,0.202,0.152h0.421c0.098,0,0.193-0.067,0.203-0.152l0.536-5.165
				c0.013-0.083,0.096-0.152,0.204-0.152H125.629L125.629,166.038z"/>
			<g>
				<polygon fill="none" points="123.913,171.505 124.705,171.505 124.753,171.057 123.871,171.057 				"/>
				<polygon fill="#939393" points="124.753,171.057 124.705,171.505 123.913,171.505 123.871,171.057 				"/>
				<polygon fill="#545454" points="124.753,171.057 124.772,170.868 123.846,170.868 123.871,171.057 				"/>
			</g>
			<g>
				<polygon fill="none" points="115.361,171.505 116.157,171.505 116.2,171.057 115.32,171.057 				"/>
				<polygon fill="#939393" points="116.2,171.057 116.157,171.505 115.361,171.505 115.32,171.057 				"/>
				<polygon fill="#545454" points="116.2,171.057 116.223,170.868 115.295,170.868 115.32,171.057 				"/>
			</g>
			<rect x="118.143" y="166.867" fill="#808080" width="3.615" height="1.091"/>
			<rect x="118.143" y="166.264" fill="#545454" width="3.615" height="0.604"/>
			<path d="M117.925,172.542c0.1,0,0.191-0.069,0.195-0.152l0.456-6.282c0.006-0.083,0.095-0.152,0.196-0.152h2.53
				c0.101,0,0.189,0.069,0.199,0.152l0.449,6.282c0.006,0.083,0.095,0.152,0.196,0.152h0.339c0.099,0,0.176-0.069,0.173-0.152
				l-0.624-7.141c-0.011-0.083-0.095-0.154-0.202-0.154h-3.592c-0.1,0-0.192,0.071-0.201,0.154l-0.623,7.141
				c-0.007,0.083,0.071,0.154,0.171,0.154L117.925,172.542L117.925,172.542z"/>
			<image width="1" height="13" xlink:href="C3CF4ACF.png"  transform="matrix(1 0 0 1 112.9299 160.667)">
			</image>
			<image width="1" height="13" xlink:href="C3CF4AC1.png"  transform="matrix(1 0 0 1 125.9299 160.667)">
			</image>
			<image width="5" height="2" xlink:href="C3CF4AC2.png"  transform="matrix(1 0 0 1 117.9299 159.667)">
			</image>
			<g>
				<path fill="#E6E6E6" d="M126.745,173.578c0.039,0,0.072,0.028,0.072,0.059v0.805c0,0.057-0.061,0.136-0.121,0.162l-0.97,0.397
					c-0.172,0.071-0.3,0.243-0.3,0.403v0.439c0,0.033-0.034,0.06-0.072,0.06h-10.641c-0.039,0-0.071-0.028-0.071-0.06v-0.439
					c0-0.16-0.129-0.332-0.3-0.401l-0.972-0.4c-0.06-0.025-0.12-0.102-0.12-0.161v-0.805c0-0.032,0.033-0.058,0.072-0.058
					L126.745,173.578 M126.745,173.442h-13.422c-0.129,0-0.234,0.089-0.234,0.194v0.805c0,0.109,0.095,0.237,0.21,0.284l0.971,0.398
					c0.116,0.047,0.211,0.173,0.211,0.282v0.439c0,0.105,0.105,0.194,0.233,0.194h10.642c0.128,0,0.233-0.089,0.233-0.194v-0.439
					c0-0.107,0.095-0.235,0.209-0.282l0.971-0.398c0.116-0.049,0.209-0.175,0.209-0.284v-0.805
					C126.98,173.531,126.874,173.442,126.745,173.442L126.745,173.442z"/>
			</g>
			<path fill="#333333" d="M124.449,174.713c0,0.105-0.105,0.194-0.233,0.194h-8.358c-0.128,0-0.234-0.089-0.234-0.194v-0.609h8.825
				V174.713L124.449,174.713z"/>
			<g>
				<g>
					<rect x="122.945" y="174.281" fill="#1A1A1A" width="0.742" height="0.372"/>
				</g>
				<g>
					<rect x="121.305" y="174.281" fill="#1A1A1A" width="0.745" height="0.372"/>
				</g>
				<g>
					<rect x="119.665" y="174.281" fill="#1A1A1A" width="0.743" height="0.372"/>
				</g>
				<g>
					<rect x="118.025" y="174.281" fill="#1A1A1A" width="0.743" height="0.372"/>
				</g>
				<g>
					<rect x="116.385" y="174.281" fill="#1A1A1A" width="0.742" height="0.372"/>
				</g>
			</g>
			<g>
				<g>
					<rect x="123.148" y="174.281" fill="#E6E6E6" width="0.337" height="0.127"/>
				</g>
				<g>
					<rect x="121.508" y="174.281" fill="#E6E6E6" width="0.335" height="0.127"/>
				</g>
				<g>
					<rect x="119.869" y="174.281" fill="#E6E6E6" width="0.335" height="0.127"/>
				</g>
				<g>
					<rect x="118.229" y="174.281" fill="#E6E6E6" width="0.335" height="0.127"/>
				</g>
				<g>
					<rect x="116.589" y="174.281" fill="#E6E6E6" width="0.336" height="0.127"/>
				</g>
			</g>
			<g>
				<g>
					<rect x="121.958" y="159.28" fill="#666666" width="0.562" height="0.809"/>
					<rect x="121.958" y="159.28" fill="#CCCCCC" width="0.092" height="0.809"/>
				</g>
				<g>
					<rect x="120.857" y="159.28" fill="#666666" width="0.561" height="0.809"/>
					<rect x="120.857" y="159.28" fill="#CCCCCC" width="0.091" height="0.809"/>
				</g>
				<g>
					<rect x="119.756" y="159.28" fill="#666666" width="0.562" height="0.809"/>
					<rect x="119.756" y="159.28" fill="#CCCCCC" width="0.091" height="0.809"/>
				</g>
				<g>
					<rect x="118.655" y="159.28" fill="#666666" width="0.562" height="0.809"/>
					<rect x="118.655" y="159.28" fill="#CCCCCC" width="0.091" height="0.809"/>
				</g>
				<g>
					<rect x="117.554" y="159.28" fill="#666666" width="0.563" height="0.809"/>
					<rect x="117.554" y="159.28" fill="#CCCCCC" width="0.092" height="0.809"/>
				</g>
			</g>
		</g>
	</g>
</g>
<polygon id="_x30_.2" points="104.155,85.315 91.361,85.315 91.361,73.838 91.861,73.22 104.654,73.22 104.654,84.697 "/>
<rect id="_x30_.6" x="91.361" y="73.838" fill="#303030" width="12.793" height="11.477"/>
<path id="color_path32_3_" d="M103.902,79.888c0-2.64,0.25-3.436,0.25-3.436l-9.799-0.001c-1.358,0-2.461,1.416-2.461,3.166
	c0,1.749,1.101,3.167,2.461,3.167l9.799,0.001C104.152,82.787,103.902,82.528,103.902,79.888z"/>
<path id="path34_1_" fill="#FFFFFF" d="M93.195,78.011L93.1,77.369c-0.392,0.377-0.679,0.931-0.776,1.583l0.375-0.113
	C92.792,78.497,92.969,78.21,93.195,78.011z"/>
<path id="path38_1_" fill="#FFFFFF" d="M103.952,81.622c-0.026-0.32-0.026-0.473-0.026-0.473l-7.896,0.015h-1.675
	c-0.51,0-0.947-0.379-1.163-0.926l-0.019,0.01l-0.525,0.558c0.348,0.746,0.98,1.247,1.706,1.247l9.635-0.016
	C103.988,82.037,103.978,81.943,103.952,81.622z"/>
<g>
	<g id="breadboard_9_">
		<rect id="connector0pin_9_" x="79.865" y="123.662" fill="none" width="1" height="1"/>
		<rect id="connector1pin_9_" x="101.465" y="123.662" fill="none" width="1" height="1"/>
		<g id="connector0leg_1_">
		</g>
		<g id="connector1leg_1_">
		</g>
		<g>
			<path d="M84.445,124.843c0,2.178,0.959,4.127,2.473,5.467h9.655c1.517-1.338,2.477-3.286,2.477-5.467
				c0-2.177-0.96-4.126-2.477-5.465h-9.656C85.404,120.715,84.445,122.665,84.445,124.843z"/>
			<rect x="86.917" y="119.378" width="9.656" height="10.932"/>
			<path fill="#CCCCCC" d="M96.589,129.684c0,0-2.349,0.229-4.845,0.229s-4.844-0.229-4.844-0.229s-0.224-2.344-0.224-4.841
				c0-2.496,0.225-4.844,0.225-4.844s2.348-0.229,4.844-0.229c2.495,0,4.844,0.229,4.844,0.229s0.228,2.348,0.228,4.844
				C96.813,127.34,96.589,129.684,96.589,129.684z"/>
			<path fill="#8F0000" d="M96.063,120.738l-0.031-0.182l-0.184-0.031c-0.021-0.003-1.979-0.312-4.104-0.312
				c-1.109,0-2.163,0.087-2.851,0.146c-0.691,0.074-1.05,0.114-1.244,0.164c-0.057,0-0.105,0.021-0.145,0.063
				c-0.062,0.027-0.075,0.081-0.077,0.143c-0.06,0.188-0.108,0.55-0.179,1.263c-0.053,0.536-0.142,1.628-0.142,2.857
				c0,2.136,0.32,4.088,0.323,4.105l0.031,0.181l0.181,0.03c0.019,0.004,1.971,0.313,4.105,0.313c2.138,0,4.086-0.312,4.104-0.312
				l0.184-0.03l0.029-0.181c0.004-0.021,0.32-1.979,0.32-4.105S96.065,120.757,96.063,120.738z M87.907,128.681
				c-0.077-0.524-0.29-2.118-0.29-3.838c0-1.8,0.188-3.382,0.271-3.839c0.183-0.027,0.527-0.074,0.964-0.121
				c-0.007,0.043-0.018,0.078-0.018,0.125c0,0.306,0.188,0.821,0.21,0.879c0.045,0.119,0.167,0.189,0.292,0.162
				c0.012-0.002,1.157-0.235,2.41-0.235c1.188,0,2.271,0.209,2.39,0.23c0.002,0.005,0.012,0.02,0.012,0.061
				c0,0.104-0.049,0.271-0.103,0.416c-0.282-0.049-0.815-0.125-1.434-0.125c-0.887,0-1.736,0.158-1.771,0.165
				c-0.075,0.021-0.138,0.063-0.176,0.126c-0.017,0.03-0.103,0.196-0.103,0.521c0,0.271,0.071,0.646,0.074,0.676
				c0.013,0.062,0.051,0.127,0.107,0.165c0.057,0.039,0.127,0.052,0.195,0.039c0.003,0,0.389-0.075,0.809-0.075
				c0.26,0,0.495,0.028,0.646,0.05c0.021,0.065,0.021,0.147,0.021,0.241c0,0.103-0.012,0.204-0.023,0.29h-0.645h-0.858
				c-0.119,0-0.222,0.081-0.25,0.195c-0.003,0.012-0.076,0.31-0.076,0.604c0,0.301,0.075,0.524,0.082,0.551
				c0.03,0.086,0.104,0.151,0.194,0.169c0.018,0.003,0.436,0.084,0.908,0.084c0.247,0,0.476-0.02,0.645-0.044
				c0.021,0.105,0.025,0.229,0.025,0.335c0,0.074-0.009,0.119-0.016,0.163c-0.28,0.044-0.896,0.129-1.521,0.129
				c-0.833,0-1.535-0.146-1.542-0.146c-0.1-0.021-0.2,0.016-0.26,0.097c-0.02,0.024-0.231,0.313-0.231,0.657
				c0,0.345,0.211,0.63,0.236,0.661c0.038,0.049,0.092,0.083,0.152,0.096c0.048,0.012,1.207,0.246,2.513,0.246
				c0.985,0,1.885-0.134,2.29-0.203c0.054,0.177,0.105,0.384,0.105,0.495c0,0.083-0.029,0.139-0.063,0.179
				c-0.676,0.063-1.486,0.113-2.339,0.113C90.025,128.971,88.431,128.759,87.907,128.681z M95.583,128.681
				c-0.189,0.028-0.521,0.075-0.941,0.12c0.006-0.041,0.021-0.075,0.021-0.123c0-0.304-0.188-0.82-0.211-0.877
				c-0.044-0.12-0.167-0.189-0.292-0.163c-0.017,0.002-1.158,0.235-2.41,0.235c-1.042,0-2.001-0.16-2.303-0.216
				c-0.041-0.071-0.084-0.18-0.084-0.273c0-0.076,0.026-0.156,0.056-0.226c0.275,0.049,0.826,0.133,1.465,0.133
				c0.886,0,1.736-0.159,1.771-0.165c0.07-0.021,0.139-0.063,0.176-0.128c0.02-0.03,0.104-0.194,0.104-0.521
				c0-0.287-0.062-0.66-0.062-0.675c-0.021-0.066-0.062-0.126-0.104-0.162c-0.062-0.039-0.129-0.053-0.188-0.041
				c-0.025,0.005-0.414,0.079-0.83,0.079c-0.261,0-0.496-0.028-0.647-0.049c-0.012-0.066-0.022-0.146-0.022-0.24
				c0-0.104,0.012-0.204,0.025-0.291h0.644h0.855c0.119,0,0.226-0.082,0.252-0.196c0.002-0.013,0.074-0.312,0.074-0.604
				c0-0.302-0.074-0.524-0.082-0.552c-0.029-0.099-0.104-0.15-0.191-0.168c-0.02-0.021-0.437-0.104-0.909-0.104
				c-0.248,0-0.475,0.022-0.645,0.063c-0.014-0.106-0.026-0.229-0.026-0.354c0-0.062,0.009-0.104,0.015-0.146
				c0.28-0.044,0.896-0.146,1.521-0.146c0.829,0,1.532,0.153,1.541,0.154c0.118,0.025,0.239-0.035,0.288-0.146
				c0.021-0.06,0.219-0.492,0.219-0.812c0-0.376-0.264-0.53-0.398-0.563c-0.05-0.021-1.207-0.24-2.515-0.24
				c-0.985,0-1.884,0.136-2.291,0.199c-0.055-0.188-0.11-0.392-0.11-0.491c0-0.081,0.031-0.146,0.06-0.188
				c0.681-0.062,1.498-0.104,2.339-0.104c1.72,0,3.312,0.212,3.838,0.285c0.076,0.521,0.289,2.115,0.289,3.841
				C95.87,126.562,95.661,128.156,95.583,128.681z"/>
			<circle fill="#8C8C8C" cx="86.014" cy="124.844" r="1.379"/>
			<circle fill="#8C8C8C" cx="97.475" cy="124.843" r="1.379"/>
			<image width="15" height="12" xlink:href="C3CF4AC0.png"  transform="matrix(1 0 0 1 84.1299 118.9885)">
			</image>
			<image width="3" height="3" xlink:href="C3CF4AC4.png"  transform="matrix(1 0 0 1 88.1299 120.9885)">
			</image>
		</g>
	</g>
</g>
</svg>
